<?xml version="1.0" encoding="UTF-8"?> <svg xmlns="http://www.w3.org/2000/svg" xmlns:xlink="http://www.w3.org/1999/xlink" width="554.9" height="151.7" viewBox="0 0 554.9 151.7"><defs><linearGradient id="linear-gradient" x1="-0.001" y1="0.501" x2="0.999" y2="0.501" gradientUnits="objectBoundingBox"><stop offset="0" stop-color="#224992"></stop><stop offset="1" stop-color="#224992"></stop></linearGradient><linearGradient id="linear-gradient-2" y1="0.5" x2="1" y2="0.5" gradientUnits="objectBoundingBox"><stop offset="0.46" stop-color="#154a97"></stop><stop offset="0.891" stop-color="#ed1a3b"></stop></linearGradient><linearGradient id="linear-gradient-3" x1="0.185" y1="0.717" x2="0.766" y2="0.353" gradientUnits="objectBoundingBox"><stop offset="0.216" stop-color="#832785"></stop><stop offset="1" stop-color="#224992"></stop></linearGradient><linearGradient id="linear-gradient-4" y1="0.501" x2="1.001" y2="0.501" gradientUnits="objectBoundingBox"><stop offset="0.46" stop-color="#832785"></stop><stop offset="0.913" stop-color="#ed1a3b"></stop></linearGradient><linearGradient id="linear-gradient-5" x1="-0.001" y1="0.5" x2="0.999" y2="0.5" gradientUnits="objectBoundingBox"><stop offset="0.222" stop-color="#36acc2"></stop><stop offset="0.757" stop-color="#224992"></stop></linearGradient><linearGradient id="linear-gradient-6" y1="0.5" x2="1.001" y2="0.5" gradientUnits="objectBoundingBox"><stop offset="0.126" stop-color="#5baabe"></stop><stop offset="0.195" stop-color="#66a7b8"></stop><stop offset="0.303" stop-color="#7e9ea8"></stop><stop offset="0.437" stop-color="#9c8d8e"></stop><stop offset="0.593" stop-color="#bd736e"></stop><stop offset="0.765" stop-color="#df4249"></stop><stop offset="0.829" stop-color="#ed1a3b"></stop></linearGradient><linearGradient id="linear-gradient-7" x1="0.5" y1="0.009" x2="0.5" y2="1.267" gradientUnits="objectBoundingBox"><stop offset="0.272" stop-color="#ed1a3b"></stop><stop offset="1"></stop></linearGradient><linearGradient id="linear-gradient-8" x1="0.234" y1="0.807" x2="0.705" y2="-0.262" gradientUnits="objectBoundingBox"><stop offset="0.151" stop-color="#933e6c"></stop><stop offset="0.634" stop-color="#92021c"></stop><stop offset="0.993" stop-color="#320000"></stop></linearGradient><linearGradient id="linear-gradient-9" x1="0.499" y1="0.801" x2="0.499" y2="-0.302" gradientUnits="objectBoundingBox"><stop offset="0.247" stop-color="#ec1d3b"></stop><stop offset="1"></stop></linearGradient></defs><g id="Gradyent_Logo_FC_White" transform="translate(-142.1 -222.5)"><g id="Group_2" data-name="Group 2"><path id="Path_4" data-name="Path 4" d="M333.3,279v34.5c0,6.1,3.1,9.2,9.2,9.2h39.4V291.3H367.8v9.8h0v11H347.4V281.9h34.5V269.8H342.5C336.4,269.8,333.3,272.9,333.3,279Z" fill="#000"></path><path id="Path_5" data-name="Path 5" d="M387.7,287.6v35.1h14.1v-33h15.7V278.3H397Q387.7,278.45,387.7,287.6Z" fill="#000"></path><path id="Path_6" data-name="Path 6" d="M453.1,278.4H422.3v11.4h25.9v5.9h-21c-6.1,0-9.2,3.1-9.2,9.2v8.6c0,6.1,3.1,9.2,9.2,9.2h35.1V287.6C462.3,281.5,459.2,278.4,453.1,278.4Zm-21,33.7v-6.7h16v6.7Z" fill="#000"></path><path id="Path_7" data-name="Path 7" d="M498.4,278.4h-21c-6.1,0-9.2,3.1-9.2,9.2v25.9c0,6.1,3.1,9.2,9.2,9.2h35.1V261.1H498.4Zm-16.1,33V289.8h16v21.6Z" fill="#000"></path><path id="Path_8" data-name="Path 8" d="M548.6,312.1h-16V278.4H518.5v35.1c0,6.1,3.1,9.2,9.2,9.2h21v6.7H518.5V340h35.1c6.1,0,9.2-3.1,9.2-9.2V278.5H548.7v33.6Z" fill="#000"></path><path id="Path_9" data-name="Path 9" d="M603.7,278.4H577.8c-6.1,0-9.2,3.1-9.2,9.2v25.9c0,6.1,3.1,9.2,9.2,9.2H613V312.1H582.8v-6.7H613V287.6C613,281.5,609.9,278.4,603.7,278.4Zm-20.9,17.2v-7.4h16v7.4Z" fill="#000"></path><path id="Path_10" data-name="Path 10" d="M653.9,278.4H618.8v44.1H633V289h16v33.5h14.1V287.6C663.1,281.5,660,278.4,653.9,278.4Z" fill="#000"></path><path id="Path_11" data-name="Path 11" d="M697,289V278.4H684.1V260.9L670,265.6v12.8h0v9.8h0v25.3c0,6.1,3.1,9.2,9.2,9.2H697V312.1H684.1V289Z" fill="#000"></path></g><g id="Group_3" data-name="Group 3"><path id="Path_12" data-name="Path 12" d="M245.4,335.1H212.7a8.44,8.44,0,0,1-7.3-4.2l-16.3-28.3a8.4,8.4,0,0,1,0-8.4l16.3-28.3a8.44,8.44,0,0,1,7.3-4.2h46.6l-4.7-8.1H202.8L177,298.4l25.9,44.8h51.6l15.2-28.9h-7.4l-9.6,16.6A8.44,8.44,0,0,1,245.4,335.1Z" fill="none"></path><path id="Path_13" data-name="Path 13" d="M256.6,355.2H200.8a8.44,8.44,0,0,1-7.3-4.2l-27.9-48.4a8.4,8.4,0,0,1,0-8.4l27.9-48.4a8.44,8.44,0,0,1,7.3-4.2h55.9a8.44,8.44,0,0,1,7.3,4.2l9.2,15.9h8l-15.9-27.2H191.5l-36.9,63.9,36.9,63.9h73.6l25.9-48h-7.8L264,350.7A8.436,8.436,0,0,1,256.6,355.2Z" fill="none"></path><path id="Path_14" data-name="Path 14" d="M212.8,261.6a8.44,8.44,0,0,0-7.3,4.2l-16.3,28.3a8.4,8.4,0,0,0,0,8.4l16.3,28.3a8.44,8.44,0,0,0,7.3,4.2h32.7a8.44,8.44,0,0,0,7.3-4.2l9.6-16.6H248.5l-5.1,8.8H214.9l-14.3-24.7,14.3-24.7H255v-12H212.8Z" fill="url(#linear-gradient)"></path><path id="Path_15" data-name="Path 15" d="M189.1,302.6l16.3,28.3a8.44,8.44,0,0,0,7.3,4.2h32.7a8.44,8.44,0,0,0,7.3-4.2l9.6-16.6H248.4l-5.1,8.8H214.8l-14.2-24.7H188A9.074,9.074,0,0,0,189.1,302.6Z" fill="url(#linear-gradient-2)"></path><path id="Path_16" data-name="Path 16" d="M291.1,314.3l-25.9,48H191.6l-36.9-63.9,36.9-63.9h73.8l15.9,27.2H255v12h36.9a5.911,5.911,0,0,0,5.1-8.9l-22.2-38.1a8.44,8.44,0,0,0-7.3-4.2H189.6a8.44,8.44,0,0,0-7.3,4.2l-38.9,67.4a8.4,8.4,0,0,0,0,8.4l38.9,67.4a8.44,8.44,0,0,0,7.3,4.2h77.8a8.461,8.461,0,0,0,7.4-4.4l30-55.6H291.1Z" fill="url(#linear-gradient-3)"></path><path id="Path_17" data-name="Path 17" d="M142.1,298.3a9.16,9.16,0,0,0,1.1,4.3L182.1,370a8.44,8.44,0,0,0,7.3,4.2h77.8a8.461,8.461,0,0,0,7.4-4.4l30-55.6H291l-25.9,48H191.5l-36.9-63.9v-.1H142.1Z" fill="url(#linear-gradient-4)"></path><path id="Path_18" data-name="Path 18" d="M291.1,314.2h-7.8v.1h7.8Z" fill="#ed1c24"></path><line id="Line_7" data-name="Line 7" y1="0.1" transform="translate(248.5 314.2)" fill="#ed1c24"></line><path id="Path_19" data-name="Path 19" d="M269.7,314.2h-7.4v.1h7.4Z" fill="#ed1c24"></path><path id="Path_20" data-name="Path 20" d="M245.4,335.1H212.7a8.44,8.44,0,0,1-7.3-4.2l-16.3-28.3a8.4,8.4,0,0,1,0-8.4l16.3-28.3a8.44,8.44,0,0,1,7.3-4.2h46.6l-4.7-8.1H202.8L177,298.4l25.9,44.8h51.6l15.2-28.9h-7.4l-9.6,16.6A8.44,8.44,0,0,1,245.4,335.1Z" fill="none"></path><path id="Path_21" data-name="Path 21" d="M256.6,355.2H200.8a8.44,8.44,0,0,1-7.3-4.2l-27.9-48.4a8.4,8.4,0,0,1,0-8.4l27.9-48.4a8.44,8.44,0,0,1,7.3-4.2h55.9a8.44,8.44,0,0,1,7.3,4.2l9.2,15.9h8l-15.9-27.2H191.5l-36.9,63.9,36.9,63.9h73.6l25.9-48h-7.8L264,350.7A8.436,8.436,0,0,1,256.6,355.2Z" fill="none"></path><path id="Path_22" data-name="Path 22" d="M291.1,314.2h-7.8v.1h7.8Z" fill="#ed1c24"></path><path id="Path_23" data-name="Path 23" d="M269.7,314.2h-7.4v.1h7.4Z" fill="#ed1c24"></path><path id="Path_24" data-name="Path 24" d="M202.9,343.2,177,298.4l25.9-44.8h51.8l4.7,8.1h13.9l-9.2-15.9a8.44,8.44,0,0,0-7.3-4.2H200.9a8.44,8.44,0,0,0-7.3,4.2l-27.9,48.4a8.4,8.4,0,0,0,0,8.4L193.6,351a8.44,8.44,0,0,0,7.3,4.2h55.8a8.513,8.513,0,0,0,7.5-4.5l19.2-36.4H269.8l-15.2,28.9H202.9Z" fill="url(#linear-gradient-5)"></path><path id="Path_25" data-name="Path 25" d="M164.4,298.3a9.16,9.16,0,0,0,1.1,4.3L193.4,351a8.44,8.44,0,0,0,7.3,4.2h55.8a8.513,8.513,0,0,0,7.5-4.5l19.2-36.4H269.6l-15.2,28.9H202.8L177,298.4v-.1Z" fill="url(#linear-gradient-6)"></path><path id="Path_26" data-name="Path 26" d="M301.3,302.3H226.6l-2.6-3.9,2.6-3.9,51.5.2h15.6l1.7-3.3a5.96,5.96,0,0,0-5.2-8.7l-55.7-.2v-.1H224.1a7.276,7.276,0,0,0-6,3.3l-5.5,8.8a5.826,5.826,0,0,0-.1,6.1l5.8,10.1a7.05,7.05,0,0,0,6.1,3.5h80.4l1.8-3.3A5.909,5.909,0,0,0,301.3,302.3Z" fill="#ed1a3b"></path><path id="Path_27" data-name="Path 27" d="M280.1,294.6l-2.4,4.5-1.7,3.1h13.6l1.7-3.1,2.4-4.5H280.1Z" fill="#ed1a3b"></path><path id="Path_28" data-name="Path 28" d="M274.7,226.7a8.44,8.44,0,0,0-7.3-4.2h-29v12h27l15.9,27.2H255v12h36.9a5.911,5.911,0,0,0,5.1-8.9Z" fill="#224992"></path></g><path id="Path_29" data-name="Path 29" d="M280.1,294.6l-2.4,4.5-1.7,3.1h13.6l1.7-3.1,2.4-4.5H280.1Z" fill="url(#linear-gradient-7)"></path><g id="Group_4" data-name="Group 4"><path id="Path_30" data-name="Path 30" d="M248.5,314.3l-5.1,8.8h-5v12h7.1a8.44,8.44,0,0,0,7.3-4.2l9.6-16.6H248.5Z" fill="url(#linear-gradient-8)"></path></g><path id="Path_31" data-name="Path 31" d="M262.1,328.7l12.4,2.3,8.8-16.7H269.7Z" fill="url(#linear-gradient-9)"></path></g></svg> 
